<svg width="132" height="65" viewBox="0 0 132 65" fill="none" xmlns="http://www.w3.org/2000/svg">
<path d="M26.4261 19.794V18.2727H33.5938V19.794H30.9219V27H29.098V19.794H26.4261ZM35.8778 22.4659H37.8338C38.7003 22.4659 39.3764 22.6733 39.8622 23.0881C40.348 23.5 40.5909 24.0511 40.5909 24.7415C40.5909 25.1903 40.4815 25.5852 40.2628 25.9261C40.044 26.2642 39.7287 26.5284 39.3168 26.7188C38.9048 26.9062 38.4105 27 37.8338 27H34.7401V20.4545H36.4744V25.5724H37.8338C38.1378 25.5724 38.3878 25.4957 38.5838 25.3423C38.7798 25.1889 38.8793 24.9929 38.8821 24.7543C38.8793 24.5014 38.7798 24.2955 38.5838 24.1364C38.3878 23.9744 38.1378 23.8935 37.8338 23.8935H35.8778V22.4659ZM41.294 27V20.4545H43.1094V27H41.294ZM47.3377 27V20.4545H50.1289C50.9357 20.4545 51.5735 20.608 52.0423 20.9148C52.511 21.2216 52.7454 21.6577 52.7454 22.223C52.7454 22.5781 52.6133 22.8736 52.3491 23.1094C52.0849 23.3452 51.7184 23.5043 51.2496 23.5866C51.6417 23.6151 51.9755 23.7045 52.2511 23.8551C52.5295 24.0028 52.7411 24.1946 52.886 24.4304C53.0337 24.6662 53.1076 24.9276 53.1076 25.2145C53.1076 25.5866 53.0082 25.9062 52.8093 26.1733C52.6133 26.4403 52.3249 26.6449 51.9442 26.7869C51.5664 26.929 51.1048 27 50.5593 27H47.3377ZM49.0295 25.6406H50.5593C50.8121 25.6406 51.0096 25.581 51.1516 25.4616C51.2965 25.3395 51.369 25.1733 51.369 24.9631C51.369 24.7301 51.2965 24.5469 51.1516 24.4134C51.0096 24.2798 50.8121 24.2131 50.5593 24.2131H49.0295V25.6406ZM49.0295 23.1477H50.1673C50.3491 23.1477 50.5039 23.1222 50.6317 23.071C50.7624 23.017 50.8619 22.9403 50.93 22.8409C51.0011 22.7415 51.0366 22.6236 51.0366 22.4872C51.0366 22.2855 50.9556 22.1278 50.7937 22.0142C50.6317 21.9006 50.4102 21.8438 50.1289 21.8438H49.0295V23.1477ZM55.3896 22.4659H57.3455C58.212 22.4659 58.8881 22.6733 59.3739 23.0881C59.8597 23.5 60.1026 24.0511 60.1026 24.7415C60.1026 25.1903 59.9933 25.5852 59.7745 25.9261C59.5558 26.2642 59.2404 26.5284 58.8285 26.7188C58.4165 26.9062 57.9222 27 57.3455 27H54.2518V20.4545H55.9862V25.5724H57.3455C57.6495 25.5724 57.8995 25.4957 58.0955 25.3423C58.2915 25.1889 58.391 24.9929 58.3938 24.7543C58.391 24.5014 58.2915 24.2955 58.0955 24.1364C57.8995 23.9744 57.6495 23.8935 57.3455 23.8935H55.3896V22.4659ZM60.8058 27V20.4545H62.6211V27H60.8058ZM65.8065 24.6051L68.163 20.4545H69.9528V27H68.2227V22.8366L65.8746 27H64.0721V20.4545H65.8065V24.6051ZM75.891 20.4545V21.8821H73.1722V27H71.408V20.4545H75.891ZM76.9979 29.4545V20.4545H78.7876V21.554H78.8686C78.9482 21.3778 79.0632 21.1989 79.2138 21.017C79.3672 20.8324 79.5661 20.679 79.8104 20.5568C80.0575 20.4318 80.3643 20.3693 80.7308 20.3693C81.2081 20.3693 81.6484 20.4943 82.0518 20.7443C82.4553 20.9915 82.7777 21.3651 83.0192 21.8651C83.2607 22.3622 83.3814 22.9858 83.3814 23.7358C83.3814 24.4659 83.2635 25.0824 83.0277 25.5852C82.7947 26.0852 82.4766 26.4645 82.0732 26.723C81.6726 26.9787 81.2237 27.1065 80.7266 27.1065C80.3743 27.1065 80.0746 27.0483 79.8274 26.9318C79.5831 26.8153 79.3828 26.669 79.2266 26.4929C79.0703 26.3139 78.951 26.1335 78.8686 25.9517H78.8132V29.4545H76.9979ZM78.7749 23.7273C78.7749 24.1165 78.8288 24.456 78.9368 24.7457C79.0447 25.0355 79.201 25.2614 79.4055 25.4233C79.6101 25.5824 79.8587 25.6619 80.1513 25.6619C80.4467 25.6619 80.6967 25.581 80.9013 25.419C81.1058 25.2543 81.2607 25.027 81.3658 24.7372C81.4737 24.4446 81.5277 24.108 81.5277 23.7273C81.5277 23.3494 81.4751 23.017 81.37 22.7301C81.2649 22.4432 81.1101 22.2187 80.9055 22.0568C80.701 21.8949 80.4496 21.8139 80.1513 21.8139C79.8558 21.8139 79.6058 21.892 79.4013 22.0483C79.1996 22.2045 79.0447 22.4261 78.9368 22.7131C78.8288 23 78.7749 23.3381 78.7749 23.7273ZM86.4581 27.1236C86.0405 27.1236 85.6683 27.0511 85.3416 26.9062C85.0149 26.7585 84.7564 26.5412 84.5661 26.2543C84.3786 25.9645 84.2848 25.6037 84.2848 25.1719C84.2848 24.8082 84.3516 24.5028 84.4851 24.2557C84.6186 24.0085 84.8004 23.8097 85.0305 23.6591C85.2607 23.5085 85.522 23.3949 85.8146 23.3182C86.1101 23.2415 86.4197 23.1875 86.7436 23.1562C87.1243 23.1165 87.4311 23.0795 87.6641 23.0455C87.897 23.0085 88.0661 22.9545 88.1712 22.8835C88.2763 22.8125 88.3288 22.7074 88.3288 22.5682V22.5426C88.3288 22.2727 88.2436 22.0639 88.0732 21.9162C87.9055 21.7685 87.6669 21.6946 87.3572 21.6946C87.0305 21.6946 86.7706 21.767 86.5774 21.9119C86.3842 22.054 86.2564 22.233 86.1939 22.4489L84.5149 22.3125C84.6001 21.9148 84.7678 21.571 85.0178 21.2812C85.2678 20.9886 85.5902 20.7642 85.9851 20.608C86.3828 20.4489 86.843 20.3693 87.3658 20.3693C87.7294 20.3693 88.0774 20.4119 88.4098 20.4972C88.745 20.5824 89.0419 20.7145 89.3004 20.8935C89.5618 21.0724 89.7678 21.3026 89.9183 21.5838C90.0689 21.8622 90.1442 22.196 90.1442 22.5852V27H88.4226V26.0923H88.3714C88.2663 26.2969 88.1257 26.4773 87.9496 26.6335C87.7734 26.7869 87.5618 26.9077 87.3146 26.9957C87.0675 27.081 86.782 27.1236 86.4581 27.1236ZM86.978 25.8707C87.245 25.8707 87.4808 25.8182 87.6854 25.7131C87.8899 25.6051 88.0504 25.4602 88.1669 25.2784C88.2834 25.0966 88.3416 24.8906 88.3416 24.6605V23.9659C88.2848 24.0028 88.2067 24.0369 88.1072 24.0682C88.0107 24.0966 87.9013 24.1236 87.7791 24.1491C87.657 24.1719 87.5348 24.1932 87.4126 24.2131C87.2905 24.2301 87.1797 24.2457 87.0803 24.2599C86.8672 24.2912 86.6811 24.3409 86.522 24.4091C86.3629 24.4773 86.2393 24.5696 86.1513 24.6861C86.0632 24.7997 86.0192 24.9418 86.0192 25.1122C86.0192 25.3594 86.1087 25.5483 86.2876 25.679C86.4695 25.8068 86.6996 25.8707 86.978 25.8707ZM91.169 27L91.1605 25.5597H91.3778C91.5313 25.5597 91.6634 25.5227 91.7741 25.4489C91.8878 25.3722 91.9815 25.2486 92.0554 25.0781C92.1293 24.9077 92.1875 24.6818 92.2301 24.4006C92.2727 24.1165 92.3011 23.767 92.3153 23.3523L92.4219 20.4545H97.3991V27H95.669V21.8821H94.054L93.9517 23.8807C93.9261 24.429 93.8594 24.9006 93.7514 25.2955C93.6463 25.6903 93.5 26.0142 93.3125 26.267C93.125 26.517 92.8991 26.7017 92.6349 26.821C92.3707 26.9403 92.0639 27 91.7145 27H91.169ZM100.975 18.2727L100.809 24.3835H99.2496L99.0792 18.2727H100.975ZM100.029 27.1108C99.7482 27.1108 99.5067 27.0114 99.305 26.8125C99.1033 26.6108 99.0039 26.3693 99.0067 26.0881C99.0039 25.8097 99.1033 25.571 99.305 25.3722C99.5067 25.1733 99.7482 25.0739 100.029 25.0739C100.299 25.0739 100.537 25.1733 100.741 25.3722C100.946 25.571 101.049 25.8097 101.052 26.0881C101.049 26.2756 101 26.4474 100.903 26.6037C100.809 26.7571 100.686 26.8807 100.532 26.9744C100.379 27.0653 100.211 27.1108 100.029 27.1108ZM34.1776 33.2727V42H32.3537V34.7727H28.8253V42H27.0014V33.2727H34.1776ZM35.9002 44.4545V35.4545H37.69V36.554H37.771C37.8505 36.3778 37.9656 36.1989 38.1161 36.017C38.2695 35.8324 38.4684 35.679 38.7127 35.5568C38.9599 35.4318 39.2667 35.3693 39.6332 35.3693C40.1104 35.3693 40.5508 35.4943 40.9542 35.7443C41.3576 35.9915 41.68 36.3651 41.9215 36.8651C42.163 37.3622 42.2837 37.9858 42.2837 38.7358C42.2837 39.4659 42.1658 40.0824 41.93 40.5852C41.6971 41.0852 41.3789 41.4645 40.9755 41.723C40.5749 41.9787 40.1261 42.1065 39.6289 42.1065C39.2766 42.1065 38.9769 42.0483 38.7298 41.9318C38.4854 41.8153 38.2852 41.669 38.1289 41.4929C37.9727 41.3139 37.8533 41.1335 37.771 40.9517H37.7156V44.4545H35.9002ZM37.6772 38.7273C37.6772 39.1165 37.7312 39.456 37.8391 39.7457C37.9471 40.0355 38.1033 40.2614 38.3079 40.4233C38.5124 40.5824 38.761 40.6619 39.0536 40.6619C39.3491 40.6619 39.5991 40.581 39.8036 40.419C40.0082 40.2543 40.163 40.027 40.2681 39.7372C40.3761 39.4446 40.43 39.108 40.43 38.7273C40.43 38.3494 40.3775 38.017 40.2724 37.7301C40.1673 37.4432 40.0124 37.2187 39.8079 37.0568C39.6033 36.8949 39.3519 36.8139 39.0536 36.8139C38.7582 36.8139 38.5082 36.892 38.3036 37.0483C38.1019 37.2045 37.9471 37.4261 37.8391 37.7131C37.7312 38 37.6772 38.3381 37.6772 38.7273ZM46.4513 42.1278C45.7894 42.1278 45.217 41.9872 44.734 41.706C44.2539 41.4219 43.8832 41.027 43.6218 40.5213C43.3604 40.0128 43.2298 39.4233 43.2298 38.7528C43.2298 38.0767 43.3604 37.4858 43.6218 36.9801C43.8832 36.4716 44.2539 36.0767 44.734 35.7955C45.217 35.5114 45.7894 35.3693 46.4513 35.3693C47.1133 35.3693 47.6843 35.5114 48.1644 35.7955C48.6474 36.0767 49.0195 36.4716 49.2809 36.9801C49.5423 37.4858 49.6729 38.0767 49.6729 38.7528C49.6729 39.4233 49.5423 40.0128 49.2809 40.5213C49.0195 41.027 48.6474 41.4219 48.1644 41.706C47.6843 41.9872 47.1133 42.1278 46.4513 42.1278ZM46.4599 40.7216C46.761 40.7216 47.0124 40.6364 47.2141 40.4659C47.4158 40.2926 47.5678 40.0568 47.6701 39.7585C47.7752 39.4602 47.8278 39.1207 47.8278 38.7401C47.8278 38.3594 47.7752 38.0199 47.6701 37.7216C47.5678 37.4233 47.4158 37.1875 47.2141 37.0142C47.0124 36.8409 46.761 36.7543 46.4599 36.7543C46.1559 36.7543 45.9002 36.8409 45.6928 37.0142C45.4883 37.1875 45.3335 37.4233 45.2283 37.7216C45.1261 38.0199 45.0749 38.3594 45.0749 38.7401C45.0749 39.1207 45.1261 39.4602 45.2283 39.7585C45.3335 40.0568 45.4883 40.2926 45.6928 40.4659C45.9002 40.6364 46.1559 40.7216 46.4599 40.7216ZM50.342 43.9176V40.5597H50.8448C50.9897 40.4687 51.1062 40.3239 51.1942 40.125C51.2852 39.9261 51.359 39.6918 51.4158 39.4219C51.4755 39.152 51.521 38.8608 51.5522 38.5483C51.5863 38.233 51.6161 37.9148 51.6417 37.5938L51.8121 35.4545H56.832V40.5597H57.8462V43.9176H56.1161V42H52.1147V43.9176H50.342ZM52.6516 40.5597H55.119V36.8523H53.3548L53.2866 37.5938C53.2383 38.2926 53.1687 38.8864 53.0778 39.375C52.9869 39.8608 52.8448 40.2557 52.6516 40.5597ZM61.8615 42.1278C61.1996 42.1278 60.6271 41.9872 60.1442 41.706C59.6641 41.4219 59.2933 41.027 59.032 40.5213C58.7706 40.0128 58.6399 39.4233 58.6399 38.7528C58.6399 38.0767 58.7706 37.4858 59.032 36.9801C59.2933 36.4716 59.6641 36.0767 60.1442 35.7955C60.6271 35.5114 61.1996 35.3693 61.8615 35.3693C62.5234 35.3693 63.0945 35.5114 63.5746 35.7955C64.0575 36.0767 64.4297 36.4716 64.6911 36.9801C64.9524 37.4858 65.0831 38.0767 65.0831 38.7528C65.0831 39.4233 64.9524 40.0128 64.6911 40.5213C64.4297 41.027 64.0575 41.4219 63.5746 41.706C63.0945 41.9872 62.5234 42.1278 61.8615 42.1278ZM61.87 40.7216C62.1712 40.7216 62.4226 40.6364 62.6243 40.4659C62.826 40.2926 62.978 40.0568 63.0803 39.7585C63.1854 39.4602 63.2379 39.1207 63.2379 38.7401C63.2379 38.3594 63.1854 38.0199 63.0803 37.7216C62.978 37.4233 62.826 37.1875 62.6243 37.0142C62.4226 36.8409 62.1712 36.7543 61.87 36.7543C61.5661 36.7543 61.3104 36.8409 61.103 37.0142C60.8984 37.1875 60.7436 37.4233 60.6385 37.7216C60.5362 38.0199 60.4851 38.3594 60.4851 38.7401C60.4851 39.1207 60.5362 39.4602 60.6385 39.7585C60.7436 40.0568 60.8984 40.2926 61.103 40.4659C61.3104 40.6364 61.5661 40.7216 61.87 40.7216ZM65.88 42L65.8714 40.5597H66.0888C66.2422 40.5597 66.3743 40.5227 66.4851 40.4489C66.5987 40.3722 66.6925 40.2486 66.7663 40.0781C66.8402 39.9077 66.8984 39.6818 66.9411 39.4006C66.9837 39.1165 67.0121 38.767 67.0263 38.3523L67.1328 35.4545H72.1101V42H70.38V36.8821H68.7649L68.6626 38.8807C68.6371 39.429 68.5703 39.9006 68.4624 40.2955C68.3572 40.6903 68.2109 41.0142 68.0234 41.267C67.8359 41.517 67.6101 41.7017 67.3459 41.821C67.0817 41.9403 66.7749 42 66.4254 42H65.88ZM73.0913 42L75.3796 38.5952L73.104 35.4545H75.1751L76.8754 38.0156H77.1566V35.4545H78.9719V38.0156H79.2447L80.945 35.4545H83.016L80.7447 38.5952L83.0288 42H80.9109L79.2276 39.4432H78.9719V42H77.1566V39.4432H76.9009L75.2092 42H73.0913ZM85.7869 39.6051L88.1435 35.4545H89.9332V42H88.2031V37.8366L85.8551 42H84.0526V35.4545H85.7869V39.6051ZM90.7312 36.8821V35.4545H96.663V36.8821H94.5536V42H92.8235V36.8821H90.7312ZM98.9013 37.4659H100.857C101.724 37.4659 102.4 37.6733 102.886 38.0881C103.371 38.5 103.614 39.0511 103.614 39.7415C103.614 40.1903 103.505 40.5852 103.286 40.9261C103.067 41.2642 102.752 41.5284 102.34 41.7188C101.928 41.9062 101.434 42 100.857 42H97.7635V35.4545H99.4979V40.5724H100.857C101.161 40.5724 101.411 40.4957 101.607 40.3423C101.803 40.1889 101.903 39.9929 101.906 39.7543C101.903 39.5014 101.803 39.2955 101.607 39.1364C101.411 38.9744 101.161 38.8935 100.857 38.8935H98.9013V37.4659Z" fill="black"/>
<path d="M128.5 32.5C128.5 39.4066 122.715 46.6329 111.123 52.341C99.7559 57.9384 83.8072 61.5 66 61.5C48.1928 61.5 32.2441 57.9384 20.8771 52.341C9.28533 46.6329 3.5 39.4066 3.5 32.5C3.5 25.5934 9.28533 18.3671 20.8771 12.659C32.2441 7.06162 48.1928 3.5 66 3.5C83.8072 3.5 99.7559 7.06162 111.123 12.659C122.715 18.3671 128.5 25.5934 128.5 32.5Z" stroke="#34EB30" stroke-width="7"/>
</svg>
